<svg xmlns="http://www.w3.org/2000/svg" viewBox="0 0 512 512" role="img" aria-label="Downloader Logo">
  <!-- Background -->
  <rect x="32" y="32" width="448" height="448" rx="96" fill="#0F172A"/>
  <rect x="52" y="52" width="408" height="408" rx="84" fill="#111C3A"/>

  <!-- Tray (drawn first so arrow is above everything) -->
  <path d="M132 360c0-10.5 8.5-19 19-19h58l18 24h58l18-24h58c10.5 0 19 8.5 19 19v40c0 22.1-17.9 40-40 40H172c-22.1 0-40-17.9-40-40v-40z"
        fill="#0B1226" opacity="0.95"/>
  <path d="M172 416h168c11 0 20-9 20-20v-8H152v8c0 11 9 20 20 20z" fill="#38BDF8" opacity="0.9"/>

  <!-- Browser top bar -->
  <rect x="92" y="108" width="328" height="56" rx="18" fill="#0B1226" opacity="0.9"/>
  <circle cx="124" cy="136" r="10" fill="#22C55E"/>
  <circle cx="154" cy="136" r="10" fill="#F59E0B"/>
  <circle cx="184" cy="136" r="10" fill="#EF4444"/>

  <!-- Download arrow (last so it sits above all) -->
  <path d="M256 172c10.5 0 19 8.5 19 19v128l37-37c7.4-7.4 19.4-7.4 26.9 0s7.4 19.4 0 26.9l-69.5 69.5c-7.4 7.4-19.4 7.4-26.9 0l-69.5-69.5c-7.4-7.4-7.4-19.4 0-26.9s19.4-7.4 26.9 0l37 37V191c0-10.5 8.5-19 19-19z"
        fill="#E2E8F0"/>
</svg>
